<svg width="68" height="68" viewBox="0 0 68 68" fill="none" xmlns="http://www.w3.org/2000/svg">
<path d="M34 0.666687C38.4203 0.666687 42.6595 2.42263 45.7851 5.54824C48.9107 8.67385 50.6667 12.9131 50.6667 17.3334C50.6667 21.7536 48.9107 25.9929 45.7851 29.1185C42.6595 32.2441 38.4203 34 34 34C29.5797 34 25.3405 32.2441 22.2149 29.1185C19.0893 25.9929 17.3333 21.7536 17.3333 17.3334C17.3333 12.9131 19.0893 8.67385 22.2149 5.54824C25.3405 2.42263 29.5797 0.666687 34 0.666687ZM34 42.3334C52.4167 42.3334 67.3333 49.7917 67.3333 59V67.3334H0.666656V59C0.666656 49.7917 15.5833 42.3334 34 42.3334Z" fill="#989999"/>
</svg>
